<?xml version="1.0" ?>
<svg height="24" viewBox="0 0 24 24" width="24" fill="#f4ebe2" xmlns="http://www.w3.org/2000/svg">
    <path clip-rule="evenodd"
        d="M8.25 10.8032C5.70578 11.1671 3.75 13.3551 3.75 16C3.75 16.615 3.85542 17.2037 4.04854 17.7501C4.18658 18.1406 3.98188 18.5691 3.59135 18.7071C3.20081 18.8452 2.77232 18.6405 2.63428 18.2499C2.3852 17.5452 2.25 16.7876 2.25 16C2.25 12.2721 5.27208 9.25 9 9.25C9.41421 9.25 9.75 9.58579 9.75 10V13C9.75 13.4142 9.41421 13.75 9 13.75C7.75736 13.75 6.75 14.7574 6.75 16C6.75 17.2426 7.75736 18.25 9 18.25C10.2426 18.25 11.25 17.2426 11.25 16C11.25 15.5858 11.5858 15.25 12 15.25C12.4142 15.25 12.75 15.5858 12.75 16C12.75 18.0711 11.0711 19.75 9 19.75C6.92893 19.75 5.25 18.0711 5.25 16C5.25 14.1858 6.53832 12.6725 8.25 12.325V10.8032ZM15 15.25C15.4142 15.25 15.75 15.5858 15.75 16C15.75 19.7279 12.7279 22.75 9 22.75C8.61754 22.75 8.24196 22.7181 7.87591 22.6567C7.48855 22.5917 7.11225 22.4937 6.75007 22.3657C6.35953 22.2277 6.15483 21.7992 6.29287 21.4087C6.4309 21.0181 6.8594 20.8134 7.24993 20.9515C7.53102 21.0508 7.82314 21.1269 8.12409 21.1774C8.40846 21.2251 8.70104 21.25 9 21.25C11.8995 21.25 14.25 18.8995 14.25 16C14.25 15.5858 14.5858 15.25 15 15.25Z"
        fill-rule="evenodd" />
    <path clip-rule="evenodd"
        d="M11.25 2C11.25 1.58579 11.5858 1.25 12 1.25H15C15.4142 1.25 15.75 1.58579 15.75 2C15.75 2.41421 15.4142 2.75 15 2.75H12.75V16C12.75 16.4142 12.4142 16.75 12 16.75C11.5858 16.75 11.25 16.4142 11.25 16V2ZM15 8.25C15.4142 8.25 15.75 8.58579 15.75 9V16C15.75 16.4142 15.4142 16.75 15 16.75C14.5858 16.75 14.25 16.4142 14.25 16V9C14.25 8.58579 14.5858 8.25 15 8.25Z"
         fill-rule="evenodd" />
    <path clip-rule="evenodd"
        d="M11.25 2C11.25 1.58579 11.5858 1.25 12 1.25H15C15.4142 1.25 15.75 1.58579 15.75 2C15.75 4.8995 18.1005 7.25 21 7.25C21.4142 7.25 21.75 7.58579 21.75 8V11C21.75 11.4142 21.4142 11.75 21 11.75C18.5033 11.75 16.2243 10.8106 14.4998 9.26717C14.1912 8.99093 14.1649 8.51678 14.4411 8.20813C14.7174 7.89949 15.1915 7.87322 15.5002 8.14947C16.7856 9.29994 18.4323 10.0527 20.25 10.2164V8.7088C17.1213 8.36294 14.6371 5.87871 14.2912 2.75H12C11.5858 2.75 11.25 2.41421 11.25 2Z"
         fill-rule="evenodd" />
</svg>